<?xml version="1.0" encoding="UTF-8"?>
<svg version="1.1" xmlns="http://www.w3.org/2000/svg" width="390" height="390">
<path d="M0 0 C5.46041592 3.11002412 8.60521871 7.23581713 11 13 C11.46519977 15.5876737 11.78655014 18.01769534 12 20.625 C12.07557129 21.42655518 12.15114258 22.22811035 12.22900391 23.05395508 C12.50310239 26.03470856 12.75350129 29.01683551 13 32 C13.10280273 33.24152832 13.20560547 34.48305664 13.31152344 35.76220703 C14.14927759 45.91284955 14.14927759 45.91284955 14.5619812 50.9859314 C15.93237363 67.80999475 17.61530083 84.5981465 19.33450317 101.3895874 C19.79227965 105.88257656 20.22610105 110.37666787 20.62890625 114.875 C20.7158374 115.84187744 20.80276855 116.80875488 20.89233398 117.80493164 C21.03883252 119.46253261 21.18090488 121.12053655 21.31665039 122.77905273 C21.89628572 129.31197963 22.59540971 136.27135022 26 142 C49.53910078 156.00332471 81.43714988 159.67405012 108 164 C107.96970703 164.79059814 107.93941406 165.58119629 107.90820312 166.39575195 C107.76999584 170.03459027 107.63497895 173.67354056 107.5 177.3125 C107.45230469 178.55580078 107.40460938 179.79910156 107.35546875 181.08007812 C107.08682431 188.39104467 106.93195423 195.68413494 107 203 C101.52092831 203.13575651 96.50039624 202.7302932 91.125 201.609375 C90.39740479 201.46348938 89.66980957 201.31760376 88.92016602 201.16729736 C87.38662854 200.85818782 85.85383459 200.5453684 84.32177734 200.22900391 C82.03519486 199.75726102 79.74646335 199.29753268 77.45703125 198.83984375 C63.4159251 196.00540101 49.5624844 192.58773057 35.8125 188.5625 C34.7822168 188.26102051 33.75193359 187.95954102 32.69042969 187.64892578 C25.28737563 185.45045014 18.12724063 182.98280927 11 180 C9.92234375 179.57847656 8.8446875 179.15695313 7.734375 178.72265625 C6.66703125 178.29855469 5.5996875 177.87445313 4.5 177.4375 C3.5615625 177.06496094 2.623125 176.69242188 1.65625 176.30859375 C-1.28633909 174.85893589 -3.58172187 173.21237401 -6 171 C-6 170.34 -6 169.68 -6 169 C-6.66 169 -7.32 169 -8 169 C-9.4375 167.12890625 -9.4375 167.12890625 -11 164.5625 C-11.515625 163.73878906 -12.03125 162.91507813 -12.5625 162.06640625 C-16.23091426 154.24112041 -16.4752386 145.76033899 -17 137.25 C-17.16388278 134.7564986 -17.32795122 132.26300939 -17.4921875 129.76953125 C-17.6154541 127.85068115 -17.6154541 127.85068115 -17.74121094 125.89306641 C-17.99629483 122.05573834 -18.27856863 118.22141999 -18.5703125 114.38671875 C-19.58381452 100.89590021 -20.30328264 87.52977536 -20 74 C-22.39434535 76.22897413 -24.10940886 78.54222042 -25.84765625 81.30859375 C-26.37037109 82.13810547 -26.89308594 82.96761719 -27.43164062 83.82226562 C-28.23891602 85.11680664 -28.23891602 85.11680664 -29.0625 86.4375 C-29.60455078 87.29666016 -30.14660156 88.15582031 -30.70507812 89.04101562 C-32.96093523 92.63532936 -35.15555508 96.17390211 -37 100 C-37.66 100 -38.32 100 -39 100 C-39 100.99 -39 101.98 -39 103 C-39.66 103 -40.32 103 -41 103 C-41.185625 103.78375 -41.37125 104.5675 -41.5625 105.375 C-43.15149498 109.38203082 -45.21210259 112.33781974 -47.734375 115.80859375 C-49.52906612 118.33663279 -51.25438114 120.88071936 -52.953125 123.47265625 C-53.47535645 124.26833008 -53.99758789 125.06400391 -54.53564453 125.88378906 C-55.57724598 127.47547128 -56.6148346 129.06978837 -57.64794922 130.66699219 C-64.56420315 141.18806772 -64.56420315 141.18806772 -70 143 C-70 143.66 -70 144.32 -70 145 C-83.24719152 149.23910129 -95.50629956 146.54879923 -108.375 142.5625 C-109.88781327 142.10943405 -111.40125461 141.65846058 -112.9152832 141.20947266 C-116.03729827 140.28252334 -119.1567441 139.34754948 -122.27490234 138.40771484 C-129.17394154 136.33948383 -136.11098541 134.40661788 -143.04840088 132.47189331 C-146.44359678 131.52449929 -149.83688061 130.57032358 -153.23046875 129.6171875 C-155.15361461 129.07801363 -157.07677853 128.53890412 -159 128 C-157.61178362 131.11027494 -155.98739331 133.28295363 -153.62109375 135.72265625 C-152.95150635 136.42068359 -152.28191895 137.11871094 -151.59204102 137.83789062 C-150.88104248 138.57201172 -150.17004395 139.30613281 -149.4375 140.0625 C-144.01361064 145.73142465 -138.88102278 151.44876826 -134.00390625 157.59375 C-131.95677463 160.05190414 -129.7905525 162.2683811 -127.5 164.5 C-122.55507925 169.32431293 -118.28056495 174.58680382 -114 180 C-113.33484375 180.82113281 -112.6696875 181.64226562 -111.984375 182.48828125 C-106.41528894 189.44963882 -103.25483444 194.60170146 -103.4375 203.7578125 C-104.45610338 209.62892923 -107.74994374 214.11756254 -111 219 C-111.32226562 219.6909375 -111.64453125 220.381875 -111.9765625 221.09375 C-113.28306077 223.52722769 -115.01731698 225.0824416 -117 227 C-120.06846483 230.61063719 -123.02460545 234.31246183 -126 238 C-126.74507813 238.91265625 -127.49015625 239.8253125 -128.2578125 240.765625 C-128.95648438 241.62671875 -129.65515625 242.4878125 -130.375 243.375 C-131.00148438 244.14585937 -131.62796875 244.91671875 -132.2734375 245.7109375 C-134.08482353 248.01354404 -134.08482353 248.01354404 -135.6015625 250.7890625 C-136.29378906 251.88347656 -136.29378906 251.88347656 -137 253 C-137.66 253 -138.32 253 -139 253 C-139 253.66 -139 254.32 -139 255 C-139.66 255 -140.32 255 -141 255 C-141.33 256.32 -141.66 257.64 -142 259 C-142.66 259 -143.32 259 -144 259 C-144.309375 259.61875 -144.61875 260.2375 -144.9375 260.875 C-145.625 262.25 -146.3125 263.625 -147 265 C-147.66 265 -148.32 265 -149 265 C-149.24492187 265.54398437 -149.48984375 266.08796875 -149.7421875 266.6484375 C-151.84107845 270.57245101 -154.64767052 273.99139182 -157.3203125 277.5390625 C-159.18791452 279.77872929 -159.18791452 279.77872929 -159 282 C-156.58220291 281.10713331 -154.1658015 280.21073892 -151.75 279.3125 C-151.08742188 279.06822266 -150.42484375 278.82394531 -149.7421875 278.57226562 C-145.58734996 277.02400069 -141.48557024 275.37953759 -137.3984375 273.66015625 C-130.27823252 270.67297613 -123.08081768 267.89660393 -115.875 265.125 C-113.81673616 264.3316626 -111.75864437 263.53788016 -109.70057678 262.74403381 C-108.3491986 262.22279906 -106.99774893 261.7017496 -105.64622498 261.18089294 C-101.80018458 259.6979103 -97.95829372 258.20492109 -94.12109375 256.69921875 C-93.2904541 256.37356934 -92.45981445 256.04791992 -91.60400391 255.71240234 C-90.12765981 255.13262349 -88.65201647 254.55105545 -87.17724609 253.96728516 C-81.37662891 251.69290567 -76.89127945 250.80632167 -70.625 250.6875 C-69.33851563 250.65011719 -68.05203125 250.61273438 -66.7265625 250.57421875 C-56.04171939 251.79502368 -48.42524425 263.5966298 -42.16015625 271.3984375 C-39.8072924 274.23208546 -37.30303171 276.78906383 -34.66015625 279.34765625 C-32.95615774 281.04363594 -31.38285917 282.80489696 -29.8125 284.625 C-26.73497564 288.18917075 -23.57212943 291.66826799 -20.375 295.125 C-19.86654541 295.67534912 -19.35809082 296.22569824 -18.83422852 296.79272461 C-16.10732603 299.73923206 -13.36887733 302.6742825 -10.6171875 305.59765625 C-4.42712947 312.18871501 1.47830052 318.83133161 7 326 C7.1557693 309.89085821 6.66372204 293.84414594 6 277.75 C5.67510706 269.82392065 5.3611565 261.89793808 5.09960938 253.96948242 C5.03581767 252.06777025 4.96725268 250.16620851 4.89257812 248.26489258 C4.8032485 245.89013745 4.74044048 243.51642785 4.6875 241.140625 C4.65011719 239.86219727 4.61273438 238.58376953 4.57421875 237.26660156 C5.08314181 233.36213452 6.25217705 231.76184246 9 229 C11.88861709 227.55569145 13.79647701 227.62311494 17 228 C21.02312152 231.29164488 23.60211675 234.40182481 24.39477539 239.57788086 C24.49520142 241.00692749 24.49520142 241.00692749 24.59765625 242.46484375 C24.71657227 244.03588867 24.71657227 244.03588867 24.83789062 245.63867188 C24.94907227 247.2715918 24.94907227 247.2715918 25.0625 248.9375 C25.21744449 251.09263698 25.37490755 253.24759468 25.53515625 255.40234375 C25.600979 256.35616943 25.66680176 257.30999512 25.73461914 258.29272461 C25.99222533 260.92068693 26.47808438 263.41369043 27 266 C27.22936894 267.98947012 27.43126005 269.98220302 27.61328125 271.9765625 C27.72494629 273.18449463 27.83661133 274.39242676 27.95166016 275.63696289 C28.01025208 276.28456573 28.06884399 276.93216858 28.12921143 277.59939575 C28.31597622 279.66341729 28.50599063 281.72711805 28.69677734 283.79077148 C28.97811995 286.83841531 29.25796744 289.88619117 29.53662109 292.93408203 C30.30610962 301.35034977 31.08091075 309.76612342 31.85922241 318.18157959 C32.121635 321.02602477 32.38180955 323.87066875 32.6418457 326.71533203 C32.80540673 328.4886155 32.96905814 330.26189063 33.1328125 332.03515625 C33.20562943 332.8381163 33.27844635 333.64107635 33.35346985 334.46836853 C33.7747427 339.00333895 34.34842561 343.49111903 35 348 C35.16210799 350.70268563 35.27392965 353.36000423 35.3125 356.0625 C35.34150391 356.74376953 35.37050781 357.42503906 35.40039062 358.12695312 C35.46442905 363.25495305 34.20405583 366.05518997 31 370 C28.31567169 372.11920656 26.5615337 372.91265031 23.1875 373.4375 C18.93881842 372.85434763 15.69680594 371.10173739 12 369 C12 368.34 12 367.68 12 367 C11.34 367 10.68 367 10 367 C10 366.34 10 365.68 10 365 C9.34 365 8.68 365 8 365 C6.765625 363.7421875 6.765625 363.7421875 5.25 361.875 C0.04124391 355.7282264 -5.75839588 350.15647143 -11.48535156 344.4987793 C-11.98518555 344.00418213 -12.48501953 343.50958496 -13 343 C-13.55913086 342.48284424 -14.11826172 341.96568848 -14.69433594 341.43286133 C-16 340 -16 340 -16 338 C-16.66 338 -17.32 338 -18 338 C-18 337.34 -18 336.68 -18 336 C-18.99 335.67 -19.98 335.34 -21 335 C-21 334.34 -21 333.68 -21 333 C-21.556875 332.76796875 -22.11375 332.5359375 -22.6875 332.296875 C-25.60667899 330.65976787 -27.64173637 328.62264328 -30 326.25 C-31.2684375 324.98929687 -31.2684375 324.98929687 -32.5625 323.703125 C-35 321 -35 321 -36.91796875 318.078125 C-39.37365639 314.44757742 -42.18816101 311.55272736 -45.3125 308.5 C-45.89136963 307.92685059 -46.47023926 307.35370117 -47.06665039 306.76318359 C-50.4254891 303.46143429 -53.86632481 300.33371953 -57.5 297.3359375 C-60.289196 294.85180981 -62.84953893 292.05633295 -65 289 C-65 288.34 -65 287.68 -65 287 C-65.66 287 -66.32 287 -67 287 C-67 286.34 -67 285.68 -67 285 C-76.02980889 282.55951111 -83.38047133 285.77781353 -91.68994141 289.09277344 C-97.7272577 291.46380148 -103.82568524 293.67923866 -109.91015625 295.92578125 C-112.18457237 296.76727144 -114.45886222 297.60910236 -116.7331543 298.45092773 C-118.27327968 299.02058526 -119.81364054 299.58960661 -121.35424805 300.15795898 C-129.30114466 303.09042775 -137.2268125 306.05547983 -145.08203125 309.2265625 C-150.22521731 311.30238758 -155.37639536 313.27229377 -160.625 315.0625 C-165.78638266 316.85208655 -170.90826269 318.7054018 -176 320.6875 C-177.04027344 321.08839844 -178.08054688 321.48929687 -179.15234375 321.90234375 C-180.897279 322.57494568 -182.64003413 323.25328116 -184.37890625 323.94140625 C-191.32493781 326.51355032 -199.7687804 328.46773399 -207 326.0625 C-211.02015109 323.29864612 -212.76800368 320.71198592 -214 316 C-215.09973672 304.37692048 -206.82206407 295.53263118 -200.34008789 286.73339844 C-198.45738253 284.16115451 -197.01530556 282.04591668 -196 279 C-195.34 279 -194.68 279 -194 279 C-193.72091797 278.41460449 -193.44183594 277.82920898 -193.15429688 277.22607422 C-192.07118333 275.13727783 -190.89402167 273.29735299 -189.53125 271.3828125 C-189.04785156 270.70089844 -188.56445312 270.01898438 -188.06640625 269.31640625 C-187.54949219 268.59324219 -187.03257812 267.87007813 -186.5 267.125 C-185.96246094 266.36832031 -185.42492187 265.61164063 -184.87109375 264.83203125 C-183.25049228 262.55246181 -181.62596652 260.27574491 -180 258 C-179.55527344 257.37706055 -179.11054688 256.75412109 -178.65234375 256.11230469 C-177.03085581 253.84145912 -175.40883301 251.57100317 -173.78442383 249.30224609 C-171.56766692 246.20413857 -169.36143576 243.09902392 -167.16796875 239.984375 C-166.67989746 239.29150391 -166.19182617 238.59863281 -165.68896484 237.88476562 C-164.68884941 236.46281289 -163.69047251 235.03963577 -162.69384766 233.61523438 C-159.9959981 229.77281628 -157.24869178 225.98022545 -154.41796875 222.234375 C-153.53105347 221.04763184 -153.53105347 221.04763184 -152.6262207 219.83691406 C-151.49267157 218.32425097 -150.3473572 216.82030382 -149.18823242 215.32714844 C-145.62644467 210.54710196 -143.24397696 206.06602251 -143 200 C-143.80087804 197.04021341 -143.80087804 197.04021341 -145.5625 194.6875 C-146.12710938 193.85347656 -146.69171875 193.01945313 -147.2734375 192.16015625 C-149.26615338 189.66700719 -151.39233583 187.83241266 -154 186 C-157 182.48275862 -157 182.48275862 -157 180 C-157.66 180 -158.32 180 -159 180 C-160.23168205 178.56858573 -161.45747998 177.1311681 -162.63671875 175.65625 C-165.11877203 172.64080419 -167.95740053 169.97069605 -170.8125 167.3125 C-172 166 -172 166 -172 164 C-172.56203125 163.773125 -173.1240625 163.54625 -173.703125 163.3125 C-176.64626861 161.63070365 -178.50044732 159.5289089 -180.75 157 C-181.94882813 155.6696875 -181.94882813 155.6696875 -183.171875 154.3125 C-185 152 -185 152 -185 150 C-185.66 150 -186.32 150 -187 150 C-187 149.34 -187 148.68 -187 148 C-187.99 147.67 -188.98 147.34 -190 147 C-193 143.55555556 -193 143.55555556 -193 141 C-193.5775 140.79375 -194.155 140.5875 -194.75 140.375 C-197.82144939 138.49800315 -199.05442771 136.00679355 -201 133 C-202.6459651 131.31288577 -204.31237149 129.6454378 -206 128 C-206.721875 127.0925 -207.44375 126.185 -208.1875 125.25 C-209.80309077 122.92512612 -209.80309077 122.92512612 -212 122 C-212 121.34 -212 120.68 -212 120 C-213.32 119.34 -214.64 118.68 -216 118 C-216 117.01 -216 116.02 -216 115 C-216.59425781 114.7834375 -217.18851563 114.566875 -217.80078125 114.34375 C-220.74418796 112.5452919 -221.62612783 110.55049575 -223.1875 107.5 C-223.69667969 106.5203125 -224.20585937 105.540625 -224.73046875 104.53125 C-227.52015753 98.96903976 -227.81023919 94.22481843 -227 88 C-224.91845701 83.30909418 -222.08037314 80.66484501 -217.75 78 C-199.41020343 73.10938758 -177.26150456 83.74440544 -159.60498047 88.94091797 C-152.49070241 91.03097203 -145.36282321 93.07159427 -138.22705078 95.08691406 C-135.73508116 95.79201063 -133.24400503 96.50001026 -130.75341797 97.20996094 C-126.73539395 98.35460219 -122.71504635 99.49080756 -118.69345093 100.62283325 C-117.08210076 101.07763863 -115.47142484 101.53484062 -113.86148071 101.99459839 C-102.11253293 105.50528626 -102.11253293 105.50528626 -90 107 C-87.47785271 105.31856847 -86.63664525 104.42955412 -85 102 C-84.39929688 101.11570312 -83.79859375 100.23140625 -83.1796875 99.3203125 C-79.57947674 93.91529582 -79.57947674 93.91529582 -77 88 C-76.34 88 -75.68 88 -75 88 C-74.73316406 87.27039063 -74.46632812 86.54078125 -74.19140625 85.7890625 C-73.01557354 83.03645741 -71.64905123 80.8224762 -69.9375 78.375 C-68.16012171 75.82843844 -66.98934061 73.96802184 -66 71 C-65.34 71 -64.68 71 -64 71 C-63.75636719 70.30777344 -63.51273438 69.61554688 -63.26171875 68.90234375 C-61.79230485 65.52223685 -59.88325998 62.59173787 -57.8125 59.5625 C-57.16535034 58.60500854 -57.16535034 58.60500854 -56.50512695 57.62817383 C-55.53981116 56.20211243 -54.572148 54.77763807 -53.60253906 53.35449219 C-51.88204695 50.82670031 -50.17129984 48.29246807 -48.4609375 45.7578125 C-24.1473587 9.80590497 -24.1473587 9.80590497 -16 3 C-14.8553125 2.01 -14.8553125 2.01 -13.6875 1 C-9.10339561 -0.70571326 -4.79885445 -0.93963584 0 0 Z " fill="#ECC008" transform="translate(256,6)"/>
<path d="M0 0 C0.33 0 0.66 0 1 0 C1.62586877 6.22907968 2.2508141 12.45825146 2.875 18.6875 C2.96681549 19.60371124 3.05863098 20.51992249 3.15322876 21.46389771 C4.26482568 32.56337441 5.37385849 43.66284464 6.40380859 54.77026367 C6.87770947 59.85408408 7.42517451 64.92654025 8 70 C6 69 6 69 4.90234375 65.87890625 C4.02748473 62.11814866 3.69616876 58.78959062 3.5625 54.9375 C3.14640173 45.29067779 2.09434387 35.71737326 1.01586914 26.12475586 C0.0794493 17.35993564 -0.1612868 8.80298655 0 0 Z " fill="#787365" transform="translate(271,74)"/>
<path d="M0 0 C4.81434673 0.60481743 9.3564841 1.53981555 14.02734375 2.84765625 C14.66112442 3.02380966 15.29490509 3.19996307 15.94789124 3.38145447 C17.94559946 3.9377027 19.94154847 4.49998482 21.9375 5.0625 C23.302622 5.44376197 24.66785548 5.82462501 26.03320312 6.20507812 C29.35676862 7.13211575 32.67878614 8.06456767 36 9 C36 9.33 36 9.66 36 10 C30.61020482 10.28873903 26.9725056 9.81964664 22.0234375 7.7265625 C19.85618424 6.94835959 17.91247923 6.66046729 15.625 6.4375 C12 6 12 6 10 4 C8.865625 3.855625 7.73125 3.71125 6.5625 3.5625 C3.05185595 3.00818778 2.04507691 2.76686876 0 0 Z " fill="#7B7254" transform="translate(110,100)"/>
<path d="M0 0 C0.66 0 1.32 0 2 0 C2.60465428 11.33887596 3.18966094 22.64141683 3 34 C2.67 34 2.34 34 2 34 C0.74323623 24.01321644 0.90632835 14.04368267 1 4 C0.01 4.33 -0.98 4.66 -2 5 C-1.34 3.35 -0.68 1.7 0 0 Z " fill="#4E5B79" transform="translate(235,76)"/>
<path d="M0 0 C2.97435357 3.65499727 3.45274849 5.94551952 3.6875 10.6875 C3.75195312 11.92113281 3.81640625 13.15476563 3.8828125 14.42578125 C4.02049207 18.62500813 4.07242687 22.79924161 4 27 C1.81648545 23.72472818 1.65172535 22.29829226 1.3671875 18.45703125 C1.28339844 17.38388672 1.19960938 16.31074219 1.11328125 15.20507812 C0.99533203 13.52575195 0.99533203 13.52575195 0.875 11.8125 C0.78863281 10.68134766 0.70226562 9.55019531 0.61328125 8.38476562 C0.40104585 5.59033286 0.19694519 2.79554519 0 0 Z " fill="#696D72" transform="translate(277,239)"/>
<path d="M0 0 C3.81402239 0.08576505 5.13033322 0.11588751 8.25 2.4375 C8.683125 3.0975 9.11625 3.7575 9.5625 4.4375 C7.5825 4.4375 5.6025 4.4375 3.5625 4.4375 C3.5625 3.7775 3.5625 3.1175 3.5625 2.4375 C-2.3775 2.9325 -2.3775 2.9325 -8.4375 3.4375 C-5.05958241 0.05958241 -4.52289551 0.0061369 0 0 Z " fill="#9E8B3F" transform="translate(250.4375,5.5625)"/>
<path d="M0 0 C5.75762166 1.08896667 11.39247819 2.29336293 17 4 C17 4.33 17 4.66 17 5 C12.60006116 5.16922842 9.85237188 5.04657256 6 3 C3.67504723 2.61250787 1.34148732 2.27017161 -1 2 C-0.67 1.34 -0.34 0.68 0 0 Z " fill="#8E7F4A" transform="translate(69,88)"/>
<path d="M0 0 C0 0.99 0 1.98 0 3 C-3.1099392 5.591616 -5.20032632 6.90772996 -9.25 7.375 C-12 7 -12 7 -14 5 C-13.04287109 4.92652344 -13.04287109 4.92652344 -12.06640625 4.8515625 C-11.24011719 4.77679688 -10.41382813 4.70203125 -9.5625 4.625 C-8.73878906 4.55539062 -7.91507812 4.48578125 -7.06640625 4.4140625 C-6.38449219 4.27742188 -5.70257813 4.14078125 -5 4 C-4.67 3.34 -4.34 2.68 -4 2 C-1.9375 0.875 -1.9375 0.875 0 0 Z " fill="#60676C" transform="translate(288,372)"/>
<path d="M0 0 C0 4.09266462 -0.21804006 6.09191749 -2.9375 9.25 C-5 11 -5 11 -7 11 C-7 10.01 -7 9.02 -7 8 C-6.34 8 -5.68 8 -5 8 C-4.731875 7.4225 -4.46375 6.845 -4.1875 6.25 C-2.98280141 3.9674132 -1.59201885 2.0262058 0 0 Z " fill="#978A44" transform="translate(67,277)"/>
<path d="M0 0 C-1.5830577 4.2742558 -4.50568404 6.26531794 -8 9 C-8 5.06368636 -6.57142871 3.87394974 -4 1 C-2 0 -2 0 0 0 Z " fill="#9F8F45" transform="translate(39,85)"/>
<path d="M0 0 C0.75 1.625 0.75 1.625 1 4 C-2.136 9.712 -2.136 9.712 -6 11 C-4.54955729 6.89041233 -2.48889248 3.56741255 0 0 Z " fill="#A19039" transform="translate(178,97)"/>
<path d="M0 0 C0.640625 1.8359375 0.640625 1.8359375 1 4 C-1.46026571 6.87030999 -3.85489214 8.90326143 -7 11 C-5.22054913 6.95579349 -2.60470327 3.53921513 0 0 Z " fill="#978A40" transform="translate(55,294)"/>
<path d="M0 0 C2.4375 0.6875 2.4375 0.6875 5 2 C5.8125 4.625 5.8125 4.625 6 7 C5.34 7 4.68 7 4 7 C4 6.34 4 5.68 4 5 C2.68 4.34 1.36 3.68 0 3 C0 2.01 0 1.02 0 0 Z " fill="#848359" transform="translate(40,121)"/>
<path d="M0 0 C0.66 0.33 1.32 0.66 2 1 C-2.82142857 7.29464286 -2.82142857 7.29464286 -7 8 C-6.02133662 6.85373678 -5.04205413 5.70800212 -4.0625 4.5625 C-3.51722656 3.92441406 -2.97195312 3.28632813 -2.41015625 2.62890625 C-1.63204305 1.73008851 -0.84063472 0.84063472 0 0 Z " fill="#AA9438" transform="translate(240,9)"/>
<path d="M0 0 C0.66 0.66 1.32 1.32 2 2 C-0.97 4.475 -0.97 4.475 -4 7 C-3.6875 4.625 -3.6875 4.625 -3 2 C-2.01 1.34 -1.02 0.68 0 0 Z " fill="#CAAA23" transform="translate(94,241)"/>
<path d="M0 0 C0.66 0 1.32 0 2 0 C2 3.3 2 6.6 2 10 C1.67 10 1.34 10 1 10 C1 8.02 1 6.04 1 4 C0.01 4.33 -0.98 4.66 -2 5 C-1.34 3.35 -0.68 1.7 0 0 Z " fill="#706C6B" transform="translate(235,76)"/>
<path d="M0 0 C0.33 0.66 0.66 1.32 1 2 C0.0625 4.625 0.0625 4.625 -1 7 C-1.99 7 -2.98 7 -4 7 C-4.33 7.66 -4.66 8.32 -5 9 C-5 8.01 -5 7.02 -5 6 C-4.34 6 -3.68 6 -3 6 C-2.690625 5.195625 -2.38125 4.39125 -2.0625 3.5625 C-1 1 -1 1 0 0 Z " fill="#7F7A4C" transform="translate(195,71)"/>
<path d="M0 0 C4.455 0.99 4.455 0.99 9 2 C9 2.33 9 2.66 9 3 C6.36 3 3.72 3 1 3 C0.67 2.01 0.34 1.02 0 0 Z " fill="#8B7B46" transform="translate(296,155)"/>
<path d="M0 0 C2.25 1.9375 2.25 1.9375 4 4 C1.69 4 -0.62 4 -3 4 C-3.33 3.01 -3.66 2.02 -4 1 C-2.25 0.25 -2.25 0.25 0 0 Z " fill="#6C6D7A" transform="translate(97,130)"/>
</svg>
